<mxfile host="65bd71144e">
    <diagram id="OuZ-Lfp1BICepxS9vUVE" name="Page-1">
        <mxGraphModel dx="1444" dy="790" grid="1" gridSize="10" guides="1" tooltips="1" connect="1" arrows="1" fold="1" page="1" pageScale="1" pageWidth="850" pageHeight="1100" math="0" shadow="0">
            <root>
                <mxCell id="0"/>
                <mxCell id="1" parent="0"/>
                <mxCell id="4" style="edgeStyle=none;html=1;exitX=1;exitY=0.5;exitDx=0;exitDy=0;entryX=0;entryY=0.5;entryDx=0;entryDy=0;" edge="1" parent="1" source="2" target="3">
                    <mxGeometry relative="1" as="geometry"/>
                </mxCell>
                <mxCell id="2" value="User" style="rounded=1;whiteSpace=wrap;html=1;" vertex="1" parent="1">
                    <mxGeometry x="80" y="80" width="120" height="60" as="geometry"/>
                </mxCell>
                <mxCell id="11" style="edgeStyle=none;html=1;exitX=0;exitY=0.25;exitDx=0;exitDy=0;entryX=1;entryY=0.25;entryDx=0;entryDy=0;" edge="1" parent="1" source="3" target="2">
                    <mxGeometry relative="1" as="geometry"/>
                </mxCell>
                <mxCell id="3" value="Randomized List" style="rounded=1;whiteSpace=wrap;html=1;" vertex="1" parent="1">
                    <mxGeometry x="280" y="80" width="120" height="60" as="geometry"/>
                </mxCell>
                <mxCell id="5" value="userID" style="rounded=0;whiteSpace=wrap;html=1;" vertex="1" parent="1">
                    <mxGeometry x="210" y="120" width="50" height="20" as="geometry"/>
                </mxCell>
                <mxCell id="8" value="List Item" style="rounded=1;whiteSpace=wrap;html=1;" vertex="1" parent="1">
                    <mxGeometry x="440" y="115" width="70" height="30" as="geometry"/>
                </mxCell>
                <mxCell id="9" value="Randomized List" style="rounded=1;whiteSpace=wrap;html=1;" vertex="1" parent="1">
                    <mxGeometry x="280" y="160" width="120" height="60" as="geometry"/>
                </mxCell>
                <mxCell id="10" value="Randomized List" style="rounded=1;whiteSpace=wrap;html=1;" vertex="1" parent="1">
                    <mxGeometry x="280" y="10" width="120" height="60" as="geometry"/>
                </mxCell>
                <mxCell id="16" value="List Item" style="rounded=1;whiteSpace=wrap;html=1;" vertex="1" parent="1">
                    <mxGeometry x="440" y="160" width="70" height="30" as="geometry"/>
                </mxCell>
                <mxCell id="17" value="List Item" style="rounded=1;whiteSpace=wrap;html=1;" vertex="1" parent="1">
                    <mxGeometry x="440" y="190" width="70" height="30" as="geometry"/>
                </mxCell>
                <mxCell id="18" value="List Item" style="rounded=1;whiteSpace=wrap;html=1;" vertex="1" parent="1">
                    <mxGeometry x="440" y="80" width="70" height="30" as="geometry"/>
                </mxCell>
                <mxCell id="19" value="List Item" style="rounded=1;whiteSpace=wrap;html=1;" vertex="1" parent="1">
                    <mxGeometry x="440" y="40" width="70" height="30" as="geometry"/>
                </mxCell>
                <mxCell id="20" value="List Item" style="rounded=1;whiteSpace=wrap;html=1;" vertex="1" parent="1">
                    <mxGeometry x="440" y="10" width="70" height="30" as="geometry"/>
                </mxCell>
            </root>
        </mxGraphModel>
    </diagram>
</mxfile>